<?xml version="1.0"?>
<svg xmlns="http://www.w3.org/2000/svg" height="512px" viewBox="0 0 512 512" width="512px"><path d="m241 240.496094v-240.496094h-166c-41.355469 0-75 33.644531-75 75v165.496094zm-58.949219-92.054688h-31.289062v31.765625c0 8.285157-6.71875 15-15 15-8.285157 0-15-6.714843-15-15v-31.765625h-31.285157c-8.28125 0-15-6.714844-15-15s6.71875-15 15-15h31.285157v-31.78125c0-8.285156 6.714843-15 15-15 8.28125 0 15 6.714844 15 15v31.78125h31.289062c8.28125 0 15 6.714844 15 15s-6.71875 15-15 15zm0 0" fill="#FFFFFF"/><path d="m271 240.496094h241v-165.496094c0-41.355469-33.644531-75-75-75h-166zm152.355469-92.0625h-92.570313c-8.285156 0-15-6.714844-15-15s6.714844-15 15-15h92.570313c8.285156 0 15 6.714844 15 15s-6.714844 15-15 15zm0 0" fill="#FFFFFF"/><path d="m271 270.496094v241.503906h166c41.355469 0 75-33.644531 75-75v-166.503906zm106 51.988281c8.285156 0 15 6.785156 15 15.15625s-6.714844 15.160156-15 15.160156-15-6.789062-15-15.160156 6.714844-15.15625 15-15.15625zm-46.21875 45.695313h92.578125c8.285156 0 15 6.714843 15 15 0 8.285156-6.714844 15-15 15h-92.578125c-8.285156 0-15-6.714844-15-15 0-8.285157 6.714844-15 15-15zm61.21875 60.40625c0 8.371093-6.714844 15.15625-15 15.15625s-15-6.785157-15-15.15625c0-8.371094 6.714844-15.15625 15-15.15625s15 6.785156 15 15.15625zm0 0" fill="#FFFFFF"/><path d="m241 270.496094h-241v166.503906c0 41.355469 33.644531 75 75 75h166zm-148.632812 90.175781c-5.828126-5.886719-5.777344-15.386719.109374-21.210937 5.886719-5.828126 15.382813-5.78125 21.210938.105468l22.066406 22.292969 22.074219-22.304687c5.828125-5.890626 15.324219-5.9375 21.214844-.109376 5.886719 5.828126 5.9375 15.324219.109375 21.210938l-22.292969 22.53125 22.285156 22.515625c5.828125 5.886719 5.777344 15.386719-.109375 21.210937-2.925781 2.894532-6.738281 4.339844-10.550781 4.339844-3.867187 0-7.730469-1.484375-10.664063-4.445312l-22.066406-22.296875-22.0625 22.296875c-2.933594 2.960937-6.800781 4.445312-10.664062 4.445312-3.8125 0-7.625-1.441406-10.550782-4.335937-5.886718-5.828125-5.9375-15.324219-.109374-21.214844l22.28125-22.515625zm0 0" fill="#FFFFFF"/></svg>
