<svg xmlns="http://www.w3.org/2000/svg" style="display: none;">
  
    <symbol id="icon-001-wine" viewBox="0 0 512 512">
      <path d="m395 150l-42-143c-1-4-5-7-9-7l-72 0c-6 0-10 4-10 10 0 6 4 10 10 10l64 0 40 136c10 35 3 72-18 101-14 19-34 34-56 41 0 0 0 0 0 0-3 1-5 2-7 3-25 10-53 10-78 0-2-1-4-2-7-3-22-7-42-22-56-41-21-29-28-66-18-101l40-136 21 0c6 0 10-4 10-10 0-6-4-10-10-10l-29 0c-4 0-8 3-9 7l-42 143c-12 41-4 85 21 119 16 22 39 39 65 48 2 1 4 1 6 2 10 6 17 17 17 29l0 94c0 28-22 50-50 50-6 0-10 4-10 10 0 6 4 10 10 10l160 0c6 0 10-4 10-10 0-6-4-10-10-10-28 0-50-22-50-50l0-94c0-12 7-23 17-29 2-1 4-1 6-2 26-9 49-26 65-48 25-34 33-78 21-119z m-108 342l-62 0c13-13 21-30 21-50l0-94c0-7-1-14-4-21 4 1 9 1 14 1 5 0 10 0 14-1-3 7-4 14-4 21l0 94c0 20 8 37 21 50z m-44-489c-2-2-4-3-7-3-3 0-5 1-7 3-2 2-3 4-3 7 0 3 1 5 3 7 2 2 4 3 7 3 3 0 5-1 7-3 2-2 3-4 3-7 0-3-1-5-3-7z m114 159l0 0c-2-6-7-9-12-7-6 1-9 7-7 12 0 0 0 0 0 0 1 5 5 8 9 8 1 0 2 0 3-1 5-1 8-7 7-12z m-6 33c-5-1-11 2-12 8-2 11-6 21-13 30-9 13-22 22-37 27-5 2-8 8-6 13 1 4 5 7 9 7 1 0 2-1 3-1 19-6 35-18 47-34 8-11 14-24 17-38 1-6-3-11-8-12z"/>
    </symbol>
  
    <symbol id="icon-002-shopping-cart" viewBox="0 0 512 512">
      <path d="m215 403c-25 0-45 20-45 45 0 25 20 45 45 45 25 0 45-20 45-45 0-25-20-45-45-45z m0 65c-11 0-20-9-20-20 0-11 9-20 20-20 11 0 20 9 20 20 0 11-9 20-20 20z m158-65c-25 0-45 20-45 45 0 25 20 45 45 45 24 0 45-20 45-45 0-25-21-45-45-45z m0 65c-11 0-20-9-20-20 0-11 9-20 20-20 11 0 20 9 20 20 0 11-9 20-20 20z m11-302l-180 0c-7 0-13 5-13 12 0 7 6 13 13 13l180 0c7 0 12-6 12-13 0-7-5-12-12-12z m-10 65l-161 0c-7 0-12 6-12 13 0 7 5 12 12 12l161 0c7 0 12-5 12-12 0-7-5-13-12-13z m132-121c-4-6-12-10-19-10l-392 0-8-38c-1-8-7-15-14-18l-55-24c-7-3-14 0-17 7-3 6 0 13 7 16l55 24 61 295c2 12 12 21 24 21l301 0c7 0 13-6 13-13 0-7-6-13-13-13l-301 0-7-36 311 0c12 0 22-8 24-20l35-170c2-8 0-15-5-21z m-54 186l-316 0-36-170 387 0z"/>
    </symbol>
  
    <symbol id="icon-003-wine-bottle" viewBox="0 0 512 512">
      <path d="m278 127c0-23 0-127 0-127l-44 0c0 0 0 104 0 127 0 23-44 51-44 84 0 33 0 270 0 278 0 9 6 23 19 23 8 0 29 0 42 0 6 0 10 0 10 0 13 0 34 0 42 0 13 0 18-14 18-23 0-8 0-245 0-278 0-33-43-61-43-84z m-35 37c-3 4-6 9-9 15-4 5-7 12-10 19-1 3-3 7-4 11 0 4-1 7-1 12 1 9 1 19 2 29 0 21 0 42 0 64 0 43-1 87-3 119-1 17-2 30-3 40-1 9-1 14-1 14 0 0-1-5-2-14-1-10-2-23-3-40-2-32-3-76-3-119 0-22 0-43 1-64 0-10 0-20 1-29-1-4 1-10 2-15 2-4 4-9 6-12 2-4 4-7 6-11 3-3 5-5 7-8 5-5 8-9 12-13 7-6 11-10 11-10 0 0-3 5-9 12z"/>
    </symbol>
  
    <symbol id="icon-004-credit-card" viewBox="0 0 512 512">
      <path d="m476 68l-440 0c-20 0-36 16-36 36l0 304c0 20 16 36 36 36l440 0c20 0 36-16 36-36l0-304c0-20-16-36-36-36z m19 340c0 10-9 19-19 19l-440 0c-10 0-19-9-19-19l0-304c0-10 9-19 19-19l440 0c10 0 19 9 19 19z m-358-92l-77 0c-5 0-9 4-9 8 0 5 4 9 9 9l77 0c4 0 8-4 8-9 0-4-4-8-8-8z m110 0l-76 0c-5 0-9 4-9 8 0 5 4 9 9 9l76 0c5 0 9-4 9-9 0-4-4-8-9-8z m-179 42l-8 0c-5 0-9 4-9 9 0 5 4 8 9 8l8 0c5 0 9-3 9-8 0-5-4-9-9-9z m51 0l-17 0c-4 0-8 4-8 9 0 5 4 8 8 8l17 0c5 0 9-3 9-8 0-5-4-9-9-9z m43 0l-8 0c-5 0-9 4-9 9 0 5 4 8 9 8l8 0c5 0 9-3 9-8 0-5-4-9-9-9z m51 0l-17 0c-4 0-8 4-8 9 0 5 4 8 8 8l17 0c5 0 9-3 9-8 0-5-4-9-9-9z m28 3c-1 1-2 4-2 6 0 2 1 4 2 6 2 2 4 2 6 2 3 0 5 0 7-2 1-2 2-4 2-6 0-2-1-5-2-6-4-3-10-3-13 0z m169-79c-11 0-21 3-30 8-9-5-19-8-30-8-33 0-60 26-60 59 0 33 27 60 60 60 11 0 21-3 30-8 9 5 19 8 30 8 33 0 59-27 59-60 0-33-26-59-59-59z m-17 59c0 12-5 23-13 31-8-8-13-19-13-31 0-12 5-22 13-30 8 8 13 18 13 30z m-86 0c0-23 19-42 43-42 5 0 10 1 15 3-9 10-15 24-15 39 0 16 6 29 15 40-5 2-10 3-15 3-24 0-43-19-43-43z m103 43c-6 0-11-1-16-3 10-11 16-24 16-40 0-15-6-29-16-39 5-2 10-3 16-3 23 0 42 19 42 42 0 24-19 43-42 43z m-340-128l116 0c10 0 19-9 19-19l0-81c0-11-9-19-19-19l-116 0c-10 0-19 8-19 19l0 81c0 10 9 19 19 19z m32-51l-34 0 0-17 34 0z m-34 32l0-15 34 0 0 15c0 1 1 1 1 2l-33 0c-1 0-2-1-2-2z m120-32l-34 0 0-15c0-1 1-2 2-2l30 0c0 0 1 0 2 0z m-2 34l-33 0c0-1 1-1 1-2l0-15 34 0 0 15c0 1-1 2-2 2z m0-85c1 0 2 1 2 2l0 12c0 2-1 3-2 3l-30 0c-11 0-19 8-19 19l0 47c0 1-1 2-3 2l-12 0c-2 0-3-1-3-2l0-81c0-1 1-2 3-2z m-116 0l33 0c0 0-1 1-1 2l0 15-34 0 0-15c0-1 1-2 2-2z"/>
    </symbol>
  
    <symbol id="icon-005-home" viewBox="0 0 512 512">
      <path d="m507 208l-243-178c-5-3-11-3-16 0l-243 178c-5 4-7 13-2 19 4 6 12 7 18 3l235-172 235 172c2 1 5 2 8 2 4 0 8-2 10-5 5-6 3-15-2-19z m-65 25c-7 0-13 6-13 13l0 212-106 0 0-116c0-37-30-67-67-67-37 0-67 30-67 67l0 116-106 0 0-212c0-7-6-13-13-13-8 0-14 6-14 13l0 225c0 7 6 13 14 13l133 0c7 0 13-5 13-12 0 0 0-1 0-1l0-129c0-22 18-40 40-40 22 0 40 18 40 40l0 129c0 0 0 1 0 1 0 7 6 12 13 12l133 0c8 0 14-6 14-13l0-225c0-7-6-13-14-13z"/>
    </symbol>
  
    <symbol id="icon-006-facebook" viewBox="0 0 512 512">
      <path d="m75 512l167 0 0-182-60 0 0-60 60 0 0-75c0-41 34-75 75-75l75 0 0 60-60 0c-17 0-30 13-30 30l0 60 87 0-10 60-77 0 0 182 135 0c41 0 75-34 75-75l0-362c0-41-34-75-75-75l-362 0c-41 0-75 34-75 75l0 362c0 41 34 75 75 75z m-45-437c0-25 20-45 45-45l362 0c25 0 45 20 45 45l0 362c0 25-20 45-45 45l-105 0 0-122 73 0 20-120-93 0 0-30 90 0 0-120-105 0c-58 0-105 47-105 105l0 45-60 0 0 120 60 0 0 122-137 0c-25 0-45-20-45-45z"/>
    </symbol>
  
    <symbol id="icon-007-instagram" viewBox="0 0 512 512">
      <path d="m75 512l362 0c41 0 75-34 75-75l0-362c0-41-34-75-75-75l-362 0c-41 0-75 34-75 75l0 362c0 41 34 75 75 75z m-45-437c0-25 20-45 45-45l362 0c25 0 45 20 45 45l0 362c0 25-20 45-45 45l-362 0c-25 0-45-20-45-45z m226 316c74 0 135-61 135-135 0-74-61-135-135-135-74 0-135 61-135 135 0 74 61 135 135 135z m0-240c58 0 105 47 105 105 0 58-47 105-105 105-58 0-105-47-105-105 0-58 47-105 105-105z m150 0c25 0 45-20 45-45 0-25-20-45-45-45-25 0-45 20-45 45 0 25 20 45 45 45z m0-60c8 0 15 7 15 15 0 8-7 15-15 15-8 0-15-7-15-15 0-8 7-15 15-15z"/>
    </symbol>
  
    <symbol id="icon-phone-call" viewBox="0 0 512 512">
      <path d="m405 317c-11-11-23-17-37-17-13 0-26 6-37 17l-34 34c-3-1-6-3-8-4-4-2-8-4-11-6-32-20-61-47-89-81-13-17-23-31-29-46 9-8 17-17 25-25 3-3 6-6 9-9 23-23 23-52 0-75l-29-29c-4-3-7-7-11-10-6-7-13-14-20-20-10-11-23-16-36-16-13 0-26 5-37 16 0 0 0 0 0 0l-37 37c-14 14-21 30-23 50-3 32 7 61 14 80 17 47 43 91 82 138 48 57 105 101 170 133 25 11 58 25 95 28 2 0 4 0 7 0 25 0 45-9 62-27 0 0 0 0 0 0 6-7 12-13 19-20 5-4 10-9 14-14 11-11 17-24 17-37 0-14-6-26-17-37z m38 114c0 0 0 0 0 0-4 4-8 9-13 13-7 7-14 14-21 22-11 11-23 17-40 17-2 0-4 0-5 0-32-2-62-15-85-25-61-30-114-72-159-125-37-45-62-86-78-130-10-27-14-48-12-68 1-12 6-23 15-32l37-37c5-5 11-7 16-7 7 0 13 4 16 7 0 0 0 1 0 1 7 6 13 12 20 19 3 3 7 7 10 11l30 29c11 11 11 22 0 34-4 3-7 6-10 9-9 9-18 18-27 26 0 0 0 0 0 1-10 9-8 18-6 24 0 1 0 1 0 1 8 19 19 36 35 57l0 0c30 37 62 66 96 88 5 2 9 5 14 7 3 2 7 4 10 6 1 0 1 0 2 0 3 2 7 3 10 3 9 0 15-6 17-7l37-37c3-4 9-9 16-9 7 0 12 5 15 8 1 0 1 0 1 1l59 59c11 11 11 23 0 34z m-166-309c28 5 54 18 74 38 21 21 34 47 39 75 1 7 7 12 14 12 1 0 2 0 3 0 8-1 13-9 12-17-6-34-22-65-47-90-25-25-56-41-90-47-8-1-16 4-17 12-1 8 4 15 12 17z m234 104c-9-57-36-108-77-149-40-41-92-67-148-77-8-1-16 4-17 12-1 8 4 16 12 17 50 9 96 32 133 69 36 36 60 82 69 133 1 7 7 12 14 12 1 0 2 0 3-1 7-1 13-8 11-16z"/>
    </symbol>
  
    <symbol id="icon-whatsapp-logo" viewBox="0 0 512 512">
      <path d="m512 249c0 138-113 250-251 250-44 0-86-11-122-31l-139 44 45-134c-23-37-36-81-36-129 0-137 113-249 252-249 138 0 251 112 251 249z m-251-209c-117 0-212 94-212 209 0 46 15 89 41 123l-27 78 81-26c34 22 74 35 117 35 116 0 211-94 211-210 0-115-95-209-211-209z m127 267c-2-3-6-4-12-7-6-3-37-18-42-20-6-2-10-3-14 3-4 6-16 20-20 24-3 4-7 4-13 1-6-3-26-9-50-30-18-16-30-36-34-42-3-6 0-10 3-13 3-2 6-7 9-10 3-4 4-7 6-11 2-4 1-7 0-10-2-3-14-33-19-46-5-12-11-10-14-10-4 0-8 0-12 0-4 0-11 1-16 7-6 6-22 21-22 51 0 30 22 59 25 63 3 4 43 68 105 93 63 24 63 16 74 15 12-1 37-15 42-29 5-14 5-27 4-29z"/>
    </symbol>
  
    <symbol id="icon-009-twitter" viewBox="0 0 512 512">
      <path d="m512 103c-32 1-32 1-35 2l19-55c0 0-60 22-75 26-39-36-98-37-140-11-35 21-53 57-47 100-67-9-124-41-169-95l-14-17-10 19c-14 25-18 53-13 79 2 11 6 21 11 31l-12-5-1 21c-2 20 5 44 18 64 4 5 8 11 14 17l-6 0 8 23c10 30 31 54 58 67-27 11-49 19-85 30l-33 11 30 17c12 6 53 27 93 34 90 14 191 2 259-59 57-52 76-125 72-201 0-12 3-23 9-32 13-16 49-66 49-66z m-73 49c-10 14-16 32-15 50 4 77-17 137-62 178-53 47-138 66-234 51-18-3-36-9-50-15 30-10 53-19 91-37l52-25-58-4c-28-1-51-15-65-37 8 0 15-1 22-3l55-16-55-13c-27-7-43-23-51-36-5-8-9-16-11-24 6 2 12 3 23 4l51 5-41-32c-29-23-41-57-32-90 92 95 199 88 210 90-2-23-2-23-3-25-14-49 17-74 30-83 29-17 74-20 106 9 7 6 16 9 25 7 7-2 14-4 20-7l-13 37 17 11719c-4 5-7 10-12 16z"/>
    </symbol>
  
    <symbol id="icon-001-contract" viewBox="0 0 512 512">
      <path d="m499 161c-18-17-46-17-64 0-5 6-40 40-45 45l0-119c0-12-5-23-13-31l-43-43c-8-8-19-13-31-13l-258 0c-25 0-45 20-45 45l0 422c0 25 20 45 45 45l300 0c25 0 45-20 45-45l0-133 109-109c17-18 17-46 0-64z m-199-131c3 0 8 0 13 4l43 43c4 5 4 10 4 13l-60 0z m60 437c0 8-7 15-15 15l-300 0c-8 0-15-7-15-15l0-422c0-8 7-15 15-15l225 0 0 75c0 8 7 15 15 15l75 0 0 116c0 0-44 45-44 45l-21 21c-2 1-3 3-4 6l-21 63c-2 6-1 12 3 16 4 4 10 5 16 3l63-21c3-1 5-2 6-4l2-1z m-34-155l22 22-9 8-31 10 10-31z m43 0l-21-21c11-11 61-61 72-72l21 21z m109-108l-16 15-21-21 15-16c6-6 16-6 22 0 5 6 5 16 0 22z m-193-54l-210 0c-8 0-15 7-15 15 0 8 7 15 15 15l210 0c8 0 15-7 15-15 0-8-7-15-15-15z m-60 60l-150 0c-8 0-15 7-15 15 0 8 7 15 15 15l150 0c8 0 15-7 15-15 0-8-7-15-15-15z m0 60l-150 0c-8 0-15 7-15 15 0 8 7 15 15 15l150 0c8 0 15-7 15-15 0-8-7-15-15-15z m0 60l-150 0c-8 0-15 7-15 15 0 8 7 15 15 15l150 0c8 0 15-7 15-15 0-8-7-15-15-15z m60 92l-90 0c-8 0-15 7-15 15 0 8 7 15 15 15l90 0c8 0 15-7 15-15 0-8-7-15-15-15z"/>
    </symbol>
  
    <symbol id="icon-002-employee" viewBox="0 0 512 512">
      <path d="m421 415c-4 0-7 3-7 7l0 71c0 2-2 4-5 4l-40 0 0-148c0-4-3-7-7-7-5 0-8 3-8 7l0 148-81 0 23-26c3-3 4-7 4-11 0 0 0 0 0 0l-23-132 6-9c4 2 6 4 11 4 5 0 10-3 12-7l23-47 54 20c2 1 31 14 31 48l0 50c0 4 3 8 7 8 4 0 8-4 8-8l0-50c0-45-38-61-40-62 0 0 0 0 0 0l-90-34 0-21c14-11 24-28 27-47 7 0 13-3 19-7 7-6 11-15 11-24 0-8-3-16-8-21l0-28c0-51-42-93-93-93-51 0-93 42-93 93l0 28c-5 6-7 13-7 21 0 9 4 18 11 24 5 4 12 7 19 7 2 20 12 37 28 48l0 20-90 34c0 0 0 0 0 0-2 1-40 17-40 62l0 156c0 10 9 19 20 19l71 0c4 0 8-3 8-8 0-4-4-7-8-7l-16 0 0-148c0-4-3-7-8-7-4 0-7 3-7 7l0 148-40 0c-3 0-5-2-5-4l0-156c0-34 29-47 31-48l54-20 23 47c2 4 7 7 12 7 5 0 7-2 11-4l6 9-23 132c0 0 0 0 0 0 0 4 1 8 4 11l23 26-30 0c-4 0-7 3-7 8 0 4 3 7 7 7l200 0c11 0 20-9 20-19l0-71c0-4-4-7-8-7z m-106-152l-22 44c0 0-12-8-26-19 6-7-1 2 27-33z m-44 47l-6 8-18 0-6-8 15-11z m-43-67l0-14c9 4 19 5 28 5 10 0 20-2 28-5l0 14-28 35z m113-101c0 4-2 9-6 12-2 2-5 4-9 4l0-33c9 1 15 8 15 17z m-157 16c-9-1-14-8-14-16 0-8 6-15 14-17z m0-48c-2 0-5 1-7 2l0-19c0-43 35-78 78-78 43 0 78 35 78 78l0 18c-2-1-4-1-7-1 0-8 0-6-23-32-5-4-12-5-17-2-26 17-58 26-88 24-6-1-12 4-14 10z m15 54l0-49c32 2 66-8 94-25 11 11 16 17 18 20 0 6 0 47 0 54 0 31-24 55-55 55-34 0-57-26-57-55z m20 143l-22-44 21-8 27 33c-14 10-25 18-26 19z m8 155l22-129 14 0 22 129-29 31z"/>
    </symbol>
  
    <symbol id="icon-003-money" viewBox="0 0 512 512">
      <path d="m342 328c-12 0-22-8-22-19 0-10 10-19 22-19 12 0 22 9 22 19 0 6 4 10 10 10 5 0 10-4 10-10 0-18-14-33-32-38l0-5c0-5-5-10-10-10-6 0-10 5-10 10l0 5c-18 5-32 20-32 38 0 22 19 39 42 39 12 0 22 9 22 19 0 11-10 19-22 19-12 0-22-8-22-19 0-5-5-10-10-10-6 0-10 5-10 10 0 19 14 34 32 38l0 5c0 5 4 10 10 10 5 0 10-5 10-10l0-5c18-4 32-19 32-38 0-21-19-39-42-39z m109-59c-13-20-31-37-53-47-5-3-11-1-13 4-2 5 0 11 5 14 38 18 62 57 62 99 0 18-4 36-13 52-2 4-1 11 4 13 2 1 3 1 5 1 4 0 7-2 9-5 10-19 15-40 15-61 0-25-7-49-21-70z m-93-60l-1 0c-6 0-10 4-10 10 0 6 4 10 10 10l1 0c0 0 0 0 0 0 5 0 10-4 10-10 0-5-5-10-10-10z m-64 229c-38-18-62-57-62-99 0-18 4-36 13-52 2-4 1-11-4-13-5-3-11-1-14 4-10 19-15 40-15 61 0 25 7 49 21 70 13 20 31 37 53 47 1 1 3 1 4 1 4 0 7-2 9-5 2-5 0-11-5-14z m33 11l-1 0c-5 0-10 4-10 10 0 5 5 10 10 10l1 0c6 0 10-4 10-10 0-6-4-10-10-10z m60-274c-1-3-2-5-4-8l26 0c25 0 46-21 46-46 0-25-21-46-46-46l-80 0c5-7 8-16 8-26 0-25-21-46-46-46l-245 0c-25 0-46 21-46 46 0 25 21 46 46 46l80 0c-5 7-8 16-8 26 0 10 3 19 8 26l-26 0c-25 0-46 21-46 46 0 15 7 28 17 36-10 8-17 21-17 36 0 15 7 28 17 36-10 8-17 21-17 36 0 15 7 28 17 36-10 8-17 21-17 36 0 25 21 46 46 46l118 0c31 33 75 54 124 54 94 0 170-76 170-170 0-78-53-144-125-164z m22-80c14 0 26 12 26 26 0 14-12 26-26 26l-245 0c-14 0-26-12-26-26 0-14 12-26 26-26z m-363-20c-14 0-26-12-26-26 0-14 12-26 26-26l245 0c14 0 26 12 26 26 0 14-12 26-26 26z m54 92l245 0c4 0 8 1 11 3-4-1-9-1-14-1-47 0-90 19-120 50l-122 0c-14 0-26-12-26-26 0-14 12-26 26-26z m0 72l105 0c-12 16-21 33-26 52l-79 0c-14 0-26-12-26-26 0-14 12-26 26-26z m0 72l74 0c-1 9-2 18-2 28 0 8 1 16 2 24l-74 0c-14 0-26-12-26-26 0-14 12-26 26-26z m0 124c-14 0-26-12-26-26 0-14 12-26 26-26l78 0c5 19 13 36 24 52z m242 54c-83 0-150-67-150-150 0-83 67-150 150-150 83 0 150 67 150 150 0 83-67 150-150 150z"/>
    </symbol>
  
</svg>
